<?xml version="1.0" encoding="utf-8"?>
<!-- Generator: Adobe Illustrator 26.2.1, SVG Export Plug-In . SVG Version: 6.00 Build 0)  -->
<svg version="1.1" id="Layer_1" xmlns="http://www.w3.org/2000/svg" xmlns:xlink="http://www.w3.org/1999/xlink" x="0px" y="0px"
	 viewBox="0 0 364 277.6" style="enable-background:new 0 0 364 277.6;" xml:space="preserve">
<style type="text/css">
	.st0{fill:none;}
</style>
<path id="Layer_2_00000142155650797118967860000015164811929346460604_" class="st0" d="M182.7,106.8c0.7-1.6,1.5-3.2,2.1-4.8
	l38-93.8c2.3-5.8,2.4-5.6,8.7-5.9c11.8-0.5,23.6-1.5,35.4-1.8c13.4-0.4,26.9-0.3,40.3-0.4c2.4,0,4.7-0.1,7.1,0
	c4.1,0.1,4.6,0.5,5.4,4.6c1.2,6,2.1,12.1,3.2,18.2c7.6,44.9,15.1,89.8,22.7,134.8c6.1,36.2,12.1,72.3,18.1,108.5
	c1.1,6.5-0.4,8.5-7,9.5c-1.4,0.2-2.9,0.2-4.3,0.1c-17.8-1-35.6-0.8-53.4,0.4c-9.2,0.7-18.5,0.5-27.8,0.7c-4.2,0.1-5.4-0.8-6.1-5.2
	c-1.5-8.8-2.9-17.6-4.3-26.3c-3.7-23.3-7.4-46.6-11.1-69.9c-0.3-1-0.6-1.9-0.9-2.9c-0.9,1.8-1.6,2.9-2.1,4.1
	c-11.6,28.4-23.2,56.8-34.7,85.2c-1.7,4.2-3.9,8.2-5.6,12.4c-0.8,2.3-3.1,3.8-5.5,3.5c-8.2-0.3-16.3-0.7-24.5-1
	c-3.6-0.1-5.3-2.2-6.6-5.4c-7-18.5-14.1-36.9-21.2-55.4c-9.3-24.2-18.6-48.4-27.9-72.7c-0.6-1.8-1.6-3.3-3-4.6
	c-0.9,6.2-1.8,12.4-2.7,18.6c-5,34.7-9.9,69.3-14.9,104c-0.3,2-0.4,4-0.8,6c-1,6.2-4.3,9.1-10.7,9.3c-6.2,0.2-12.3,0.4-18.5,0.2
	c-21-0.5-42.1-1.1-63.1-1.9c-7-0.2-7.5-1.1-6.3-7.8c3-17.4,6-34.7,9-52c7.1-41,14.2-82,21.3-122.9c4.5-26.1,9-52.2,13.5-78.3
	c0.3-1.6,0.5-3.2,0.9-4.8c1.6-6.4,3.3-7.7,9.9-7.7c27.2,0,54.5,0,81.7,0.1c6,0,6,0,8.1,5.7c11.4,31,22.8,62,34.2,93
	c0.8,2.2,1.7,4.4,2.5,6.6L182.7,106.8z M197.8,266.2c1-2.2,1.6-3.7,2.2-5.2c8.8-21.7,17.7-43.4,26.5-65.1
	c6.9-17,13.6-34.1,20.4-51.1c3.6-8.9,7.4-17.8,11.2-26.6c2-4.7,4.1-5.6,9.1-4.6c3.2,0.6,5.2,2.4,5.7,5.7c0.2,1.4,0.6,2.8,0.8,4.3
	c7.3,45.9,14.7,91.8,22,137.7c0.3,1.2,0.6,2.3,1,3.5l55.1-1.1c-14.1-84.2-28.2-168.1-42.4-252.2c-2-0.1-3.6-0.3-5.1-0.3
	c-15.2,0.3-30.5,0.6-45.7,0.8c-4,0.1-6.1,1.7-7.6,5.5c-16.4,41.1-33,82.2-49.6,123.3c-0.7,2.1-1.6,4-2.7,5.9
	c-3.7,5.5-11.3,5.1-13.9-0.9c-3.8-8.8-7.4-17.7-10.8-26.7c-12.6-34-25-68.1-37.6-102.2c-0.7-1.9-1.4-3.7-2.1-5.4l-58.1,1.9
	C61.7,97.5,47.2,181.5,32.5,266.2l55.2-1.2c0.3-0.8,0.5-1.7,0.7-2.5c2.2-15.5,4.4-30.9,6.6-46.4c4.5-31.4,8.9-62.9,13.4-94.3
	c0.2-1.8,0.7-3.5,1.6-5.2c1.9-3.2,5.2-3.1,7.3-0.1c0.5,0.7,0.9,1.5,1.4,2.3c9.2,14.7,15.7,30.7,22.2,46.6
	c9.5,23.4,18.2,47,27.3,70.6c3.3,8.5,6.5,17,9.8,25.4c0.7,1.8,1.1,3.9,3.8,4C187.1,265.7,192.3,266,197.8,266.2L197.8,266.2z
	 M20.9,267.3c4.9-28.6,9.8-56.8,14.6-85s9.9-56.5,14.7-84.7s9.9-56.2,14.5-84.7c-2.3-0.1-3.7-0.2-5.1-0.2c-1.1,0-2.1,0.2-3.7,0.3
	c-14.7,84.7-29.3,169.4-44,254.3L20.9,267.3z M284.7,266.2c-0.8-7.4-19.1-127.3-21.5-130.1c-1.5,3.4-2.8,6.8-4.3,10.1
	c-1.3,3-1.7,6.3-1.1,9.5c5.1,31.9,10.2,63.7,15.3,95.6c0.8,5,1.7,9.9,2.5,14.9H284.7z M232.8,13.6c-0.9,2.1-1.7,4-2.5,5.8
	c-13.3,32.9-26.4,65.9-40,98.8c-2.4,5.7-1.6,10.2,1.7,15.7l48.5-120.3H232.8z"/>
</svg>
