<svg xmlns="http://www.w3.org/2000/svg" viewBox="0 0 363.98 279.83"><g id="Layer_2" data-name="Layer 2"><g id="Layer_1-2" data-name="Layer 1"><path d="M248,173.61c-3.49,8.53-7,17-10.48,25.58-8.89,21.85-17.72,43.72-26.65,65.56-1.44,3.51-3.33,6.85-4.86,10.33a4.45,4.45,0,0,1-4.62,3c-2.91-.09-5.81-.14-8.72-.23-3.4-.11-6.81-.77-10,1.42-.91.64-2.46.54-3.71.49-7.44-.27-14.88-.7-22.32-.92-2.41-.07-4.16-.76-5.26-3-1.9-3.91-4.26-7.62-5.83-11.65-10.25-26.38-20.35-52.83-30.51-79.25-.7-1.83-1.53-3.61-2.74-6.46-.61,2.38-1.07,3.67-1.26,5q-6,41.76-12,83.53c-1,7-4.22,9.73-11.12,10-12.46.53-24.92,1.56-37.38,1.74-13.8.19-27.6-.35-41.4-.57a19.88,19.88,0,0,1-2.18-.1c-5.42-.6-7.76-3.52-6.87-8.85C2,258.69,3.81,248.15,5.64,237.6q10.64-61.42,21.28-122.83Q35.77,63.55,44.6,12.31a33.25,33.25,0,0,1,.9-3.7c1.67-5.63,3-6.82,8.9-6.7,13,.27,25.89-2.46,39-1.81s26.15.23,39.22.27c1.09,0,2.19,0,3.27,0,4.46-.29,7.13,1.79,8.59,6,2.57,7.37,5.3,14.68,8,22q13.68,37.31,27.39,74.6c.61,1.65,1.34,3.24,2.37,5.73,1.64-3.94,2.91-6.93,4.13-9.94C198.62,68.41,211,38.17,223.08,7.84c1.44-3.62,3.43-4.8,7.17-5.1C253.77.82,277.34,1,300.89.55c4-.08,8-.15,12-.18,5.33,0,6.21.63,7.15,6,1.56,8.94,3,17.89,4.5,26.84q10.64,63.36,21.27,126.7,8.9,52.88,17.83,105.75A21,21,0,0,1,364,270c-.12,3.22-1.63,4.93-4.78,5.72a2.05,2.05,0,0,1-.54.07c-9.42-.41-18.68,1.77-28,1.89-18,.23-36-.24-53.93-.39a20.8,20.8,0,0,0-3.24.32c-5.55.84-7.68-.56-8.62-6.17-1.62-9.66-3.07-19.36-4.62-29q-5.34-33.33-10.71-66.65c-.11-.7-.3-1.39-.45-2.08ZM76.29,13.55C61.73,97.72,47.2,181.69,32.62,266H67.23c.4-2.05.79-3.63,1-5.24q8.94-62.81,17.84-125.61c.64-4.49,1.2-9,2.06-13.46.81-4.26,4-6.51,7.39-4.93,3.53,1.66,7.22,3.45,8.5,7.82.57,1.93.9,4.17,3.18,5.71.6-3.83,1-7.25,1.71-10.58,1.11-4.86,4.77-6.19,9.07-3.82a15.75,15.75,0,0,1,7.42,8.86q25.31,66.39,50.89,132.67c.7,1.82,1.49,3.6,2.57,6.2,1.14-2.47,1.95-4.06,2.62-5.7q14.46-35.57,28.89-71.13,13.44-33,27-66c1.91-4.64,3.54-5.51,7.82-5,4.68.54,6.37,2,7.33,6.63.35,1.68.64,3.37,1,5.06,2.35-3.12,3.58-6.31,5.07-9.39,1.82-3.76,3.71-4.57,7.92-3.78,4.9.92,6,2.13,6.91,7.6q10.47,65.6,20.93,131.19c.65,4,1.45,8.08,2.22,12.36,11.71-.42,22.86-.22,34.44-1.16C316.79,180.16,302.78,96.85,288.81,13.8c-10.9,0-21.06.15-31.22-.09-3.7-.08-5.44,1.25-6.79,4.65q-18,45.29-36.33,90.44c-4.88,12.12-9.74,24.25-14.69,36.34-1.39,3.4-3.65,5.53-7.78,5.66-4.28.13-6.87-1.6-8.46-5.37-.5-1.17-1.22-2.24-2.15-3.93-1.1,2.48-1.8,4.14-2.56,5.78-1.59,3.44-4.09,5.28-8.09,5.27s-6.44-2-7.87-5.49c-.62-1.51-1.19-3-1.76-4.57Q138.51,80.9,115.89,19.32c-.73-2-1.6-3.94-2.36-5.77ZM300,12.17c14.18,84.33,28.25,168.05,42.39,252.14h9.56C337.75,180,323.64,96.12,309.52,12.15c-1.81-.13-3.06-.3-4.3-.29C303.79,11.86,302.37,12,300,12.17ZM20.83,268c14.7-85,29.34-169.59,44-254.55-2-.1-3.28-.24-4.52-.21-1.4,0-2.79.22-4.49.37C41.17,98.44,26.54,183,11.84,268Zm264.23-1.33c-7-43.69-13.88-86.85-20.77-130l-1.17-.15c-1.56,3.79-3.07,7.59-4.7,11.35a12.47,12.47,0,0,0-.74,7.38c5,31,9.89,61.95,14.83,92.92,1,6.22,2.09,12.42,3.11,18.5ZM168.19,267.8c-16.69-43.55-33.07-86.43-50.11-129.11-.89,2.63-1.09,5.18-1.72,7.61-1.44,5.56-.09,10.57,2,15.78,9.52,24.32,18.77,48.74,28.11,73.12,3.64,9.48,7.41,18.92,10.86,28.47,1.11,3.08,2.77,4.44,6,4.15C164.62,267.7,166,267.8,168.19,267.8ZM125.81,12c1.56,7.61,43.17,119.89,45.71,123.24.9-2.14,1.62-4.16,2.58-6.06,1.5-2.95,1.41-5.68.24-8.83Q155,68.1,135.88,15.77c-.48-1.31-1.18-2.55-1.75-3.78ZM87.9,265.48c.77-5.08,1.54-9.89,2.23-14.71,4.17-29.26,8-58.57,12.67-87.74,1.39-8.71-2.36-15.27-4.86-22.55l-1.19.09c-5.92,41.51-11.84,83-17.81,124.91Zm154.33-127-52,127.83h7.68c.68-1.47,1.33-2.76,1.88-4.1,14.3-35.12,28.45-70.31,43-105.32C245.45,150.49,245.05,144.71,242.23,138.43Zm-50.15-4.17C208.3,94,224.24,54.4,240.35,14.41h-7.77c-.89,2.1-1.71,3.9-2.45,5.74-13.22,32.8-26.29,65.67-39.78,98.36C188.07,124,188.43,128.52,192.08,134.26Z"/></g></g></svg>